<svg viewBox="0 0 336 400" fill="none" xmlns="http://www.w3.org/2000/svg">
<g id="Group">
<path id="Vector" d="M0 232.118C0 324.903 75.1497 400 168 400C260.85 400 336 324.903 336 232.118C336 139.333 260.85 64.2358 168 64.2358C153.715 64.2358 139.741 66.0977 126.388 69.5112C129.183 63.3049 130.425 56.7882 130.425 49.6509C130.425 22.3429 108.067 0 80.7394 0C53.4122 0 31.0536 22.3429 31.0536 49.6509C31.0536 72.6144 46.5804 91.8541 67.6968 97.4398C26.7061 128.161 0 176.881 0 232.118ZM54.0332 49.6509C54.0332 34.7556 66.1441 22.6532 81.0499 22.6532C95.9556 22.6532 108.067 34.7556 108.067 49.6509C108.067 64.5461 95.9556 76.6485 81.0499 76.6485C66.1441 76.6485 54.0332 64.5461 54.0332 49.6509ZM300.599 232.118C300.599 305.353 241.287 364.624 168 364.624C94.7135 364.624 35.401 305.353 35.401 232.118C35.401 158.883 94.7135 99.612 168 99.612C241.287 99.612 300.599 158.883 300.599 232.118Z" fill="currentColor"/>
<path id="Vector_2" d="M66.4546 283.941L138.189 274.321C146.573 280.217 156.821 283.941 168 283.941C196.569 283.941 219.86 260.667 219.86 232.118C219.86 230.566 219.86 228.704 219.549 227.153L273.582 174.088L198.122 190.225C189.427 184.019 179.179 180.295 167.69 180.295C139.12 180.295 115.83 203.569 115.83 232.118C115.83 233.98 115.83 235.531 116.14 237.393L66.4546 283.941Z" fill="currentColor"/>
</g>
</svg>
