<svg width="106" height="39" viewBox="0 0 106 38" fill="none" xmlns="http://www.w3.org/2000/svg">
<g clip-path="url(#clip0_125_367)">
<path fill-rule="evenodd" clip-rule="evenodd" d="M23.351 38.0457C24.081 37.876 23.9552 34.108 23.9552 34.108C23.9552 34.108 24.2698 32.2523 18.7475 28.7672C15.7425 26.8813 12.1019 26.8813 12.1019 26.8813C11.908 26.8218 11.727 26.713 11.5713 26.5623C11.4155 26.4116 11.2886 26.2226 11.1991 26.008C11.1095 25.7934 11.0595 25.5583 11.0524 25.3185C11.0453 25.0787 11.0813 24.8399 11.1579 24.6183C11.6551 22.8267 12.555 23.2605 12.555 23.2605C14.5082 23.4772 16.4415 23.9013 18.3322 24.5278C21.2837 25.5386 24.1817 28.6465 24.1817 28.6465V9.81789C22.6098 11.6107 20.7473 12.9972 18.7098 13.8914C16.5571 14.8091 14.3071 15.3577 12.0264 15.5208C12.0264 15.5208 11.1894 15.4642 11.0446 14.0724C10.9848 13.581 11.0808 13.0806 11.3139 12.6699C11.5469 12.2593 11.9 11.9684 12.3033 11.8546C12.3033 11.8546 15.4121 12.1602 19.5405 9.68212C22.8633 7.69063 23.8828 4.5676 23.8828 4.5676C23.8828 4.5676 24.1975 4.3413 24.0338 1.8972C23.9394 0.35832 23.2786 0.222536 23.2786 0.222536C23.2786 0.222536 16.8659 -0.0452593 12.4071 0.222536C6.40336 0.599712 0.475132 0.222536 0.475132 0.222536C0.475132 0.222536 0.210822 14.2535 0.0975437 19.9526C0.0188783 23.9394 0.210817 37.3027 0.210817 37.3027C0.220541 37.5101 0.283954 37.7088 0.392232 37.871C0.500509 38.0333 0.648272 38.151 0.814971 38.2079C1.33883 38.4113 1.88833 38.5032 2.43862 38.4795C2.43862 38.4795 16.784 39.5846 23.351 38.0457Z" fill="#000000" stroke="#000000" stroke-width="0.48" stroke-linecap="round" stroke-linejoin="round"/>
<path fill-rule="evenodd" clip-rule="evenodd" d="M27.5047 38.2268C26.9509 37.5026 27.0516 33.1575 27.253 19.1568C27.5047 1.78404 27.8068 0.392261 27.8068 0.392261C27.8068 0.392261 31.9383 0.392253 39.2353 0.207437C46.5323 0.0226207 50.4624 0.0301638 50.4624 0.0301638C50.4624 0.0301638 51.57 2.14236 51.4694 19.1568C51.3718 35.4508 50.6135 38.0457 50.6135 38.0457C50.6135 38.0457 49.9055 38.5134 45.7299 38.8303C43.9874 38.9765 42.2399 39.0168 40.494 38.951C40.1349 37.0514 39.9826 35.104 40.0408 33.1575C40.1478 29.763 40.1919 27.1831 40.1919 27.1831C40.1919 27.1831 40.2422 25.7951 38.7319 25.8554C37.2215 25.9158 37.3222 27.1831 37.3222 27.1831C37.3222 27.1831 37.0547 30.3778 37.0075 32.7955C36.9762 34.8607 37.1281 36.9241 37.4606 38.951L32.6872 38.8604C32.6872 38.8604 28.0585 38.951 27.5047 38.2268ZM37.4732 13.6085C37.4732 13.6085 37.6746 15.1776 38.8829 15.1776C40.5947 15.1776 40.494 13.6085 40.494 13.6085L40.8086 7.63403C40.8168 7.40433 40.7842 7.17518 40.713 6.96169C40.6418 6.74821 40.5336 6.55524 40.3957 6.39555C40.2577 6.23586 40.093 6.11307 39.9125 6.03528C39.732 5.9575 39.5398 5.92648 39.3486 5.94429C39.1522 5.92848 38.9551 5.95993 38.769 6.03678C38.5829 6.11363 38.4115 6.23434 38.2649 6.3918C38.1183 6.54925 37.9995 6.74027 37.9154 6.95361C37.8313 7.16695 37.7837 7.3983 37.7753 7.63403L37.4732 13.6085Z" fill="#000000"/>
<path fill-rule="evenodd" clip-rule="evenodd" d="M54.9935 0.388655C54.5529 0.358481 54.5404 15.4153 54.5404 15.4153C54.5404 15.4153 61.0413 15.8604 65.0595 18.7005C70.0941 22.2611 70.2451 27.3756 70.2451 27.3756C70.2702 27.7976 70.1586 28.215 69.9336 28.5409C69.7086 28.8669 69.3874 29.0763 69.0368 29.1257C67.9544 29.3369 67.3754 27.7377 67.3754 27.7377C67.3754 27.7377 66.7775 23.551 62.4919 21.1597C59.9888 19.8149 57.2831 19.0962 54.5404 19.0476C54.5404 19.0476 54.4648 22.94 54.4648 28.9145C54.4648 35.251 54.6914 37.8762 54.6914 37.8762C54.6914 37.8762 54.5687 38.4872 57.6587 38.7512C59.0683 38.8719 61.1829 38.9624 61.1829 38.9624H70.3962C70.3962 38.9624 73.3666 38.8719 75.2545 38.6909C78.14 38.4155 77.948 38.0572 77.948 38.0572C77.948 38.0572 78.4515 37.5141 78.6025 29.4878C78.6906 24.8711 78.7032 18.8665 78.7032 18.8665C77.4472 17.0346 75.9089 15.5094 74.1721 14.3743C72.1548 13.1449 69.9389 12.4551 67.6775 12.3527C67.6775 12.3527 66.1419 12.413 66.1419 10.5422C66.1419 8.67144 67.6775 8.73179 67.6775 8.73179C67.6775 8.73179 70.8241 8.88266 73.3162 9.86331C76.0349 10.9496 78.7032 13.6049 78.7032 13.6049C78.7032 13.6049 78.5931 7.73981 78.3886 4.03972C78.1305 -0.516571 77.6522 0.0265691 77.6522 0.0265691C77.6522 0.0265691 77.8033 -0.0337832 72.5925 0.128402C69.8487 0.215153 66.2993 0.203842 66.2993 0.203842C66.2993 0.203842 58.3132 0.603645 54.9935 0.388655Z" fill="#000000"/>
<path fill-rule="evenodd" clip-rule="evenodd" d="M104.993 0.0301756C104.993 0.0301756 106.053 -1.19187 106.012 18.8098C105.975 38.2721 105.144 38.0457 105.144 38.0457C105.144 38.0457 105.333 38.8982 93.0641 38.9962C81.8118 39.0868 82.0509 38.0457 82.0509 38.0457C82.0509 38.0457 81.8432 38.2721 81.7111 30.3061C81.5978 23.4717 81.7488 22.4759 81.7488 22.4759C81.7488 22.4759 92.4725 21.5179 93.3032 27.0926C93.6808 29.6272 89.1497 30.0798 89.1497 30.0798C89.1497 30.0798 87.8218 30.9963 88.2812 32.4786C88.6588 33.7007 90.0559 33.5196 90.0559 33.5196C90.0559 33.5196 96.2453 33.1123 96.3491 27.1378C96.5222 18.1309 81.7394 18.674 81.7394 18.674C81.7394 18.674 81.859 9.35398 81.8527 7.99614C81.8149 -0.875037 82.1925 0.392273 82.1925 0.392273L92.312 0.211224C92.312 0.211224 91.7551 2.70059 91.7834 7.18144C91.8211 13.518 92.0099 14.3478 92.0099 14.3478C92.0099 14.3478 92.1987 16.2902 93.4448 16.3808C95.0181 16.4977 95.0181 14.5741 95.0181 14.5741C94.8113 12.4555 94.6989 10.3252 94.6814 8.19227C94.7283 5.52703 94.9037 2.86726 95.2069 0.226315L104.993 0.0301756Z" fill="#000000"/>
</g>
<defs>
<clipPath id="clip0_125_367">
<rect width="106" height="39" fill="white"/>
</clipPath>
</defs>
</svg>
